<?xml version="1.0"?>
<svg xmlns="http://www.w3.org/2000/svg" xmlns:xlink="http://www.w3.org/1999/xlink" xmlns:svgjs="http://svgjs.com/svgjs" version="1.1" width="512" height="512" x="0" y="0" viewBox="0 0 512 512" style="enable-background:new 0 0 512 512" xml:space="preserve" class=""><g transform="matrix(1.01,0,0,1.01,-2.5599997711177593,-2.5599997711177878)"><g xmlns="http://www.w3.org/2000/svg"><path d="m512 256c0 68.38-26.63 132.67-74.98 181.02s-112.64 74.98-181.02 74.98-132.67-26.63-181.02-74.98c-48.35-48.35-74.98-112.64-74.98-181.02s26.63-132.67 74.98-181.02 112.64-74.98 181.02-74.98c57.24 0 111.61 18.67 156.17 53.12l.54-22.75 29.99.71-1.57 67.04-65.95 12.21-5.46-29.5 23.58-4.37c-39.23-30.13-87.01-46.46-137.3-46.46-60.37 0-117.12 23.51-159.81 66.19-42.68 42.69-66.19 99.44-66.19 159.81s23.51 117.12 66.19 159.81c42.69 42.68 99.44 66.19 159.81 66.19s117.12-23.51 159.81-66.19c42.68-42.69 66.19-99.44 66.19-159.81 0-33.93-7.33-66.54-21.78-96.92l27.1-12.89c16.38 34.45 24.68 71.39 24.68 109.81z" fill="#67a6ff" data-original="#67a6ff" style="" class=""/><path d="m393.3 76.46c-39.23-30.13-87.01-46.46-137.3-46.46v-30c57.24 0 111.61 18.67 156.17 53.12l.54-22.75 29.99.71-1.57 67.04-65.95 12.21-5.46-29.5z" fill="#7881ef" data-original="#7881ef" style=""/><path d="m512 256c0 68.38-26.63 132.67-74.98 181.02s-112.64 74.98-181.02 74.98v-30c60.37 0 117.12-23.51 159.81-66.19 42.68-42.69 66.19-99.44 66.19-159.81 0-33.93-7.33-66.54-21.78-96.92l27.1-12.89c16.38 34.45 24.68 71.39 24.68 109.81z" fill="#7881ef" data-original="#7881ef" style=""/><circle cx="256" cy="256" fill="#fff5f5" r="164.38" data-original="#fff5f5" style="" class=""/><path d="m420.38 256c0 90.78-73.6 164.38-164.38 164.38v-328.76c90.78 0 164.38 73.6 164.38 164.38z" fill="#e4e4ed" data-original="#e4e4ed" style=""/><path d="m377.612 241h42.768v30h-42.768z" fill="#263658" data-original="#263658" style=""/><g fill="#454d7d"><path d="m91.62 241h42.768v30h-42.768z" fill="#454d7d" data-original="#454d7d" style="" class=""/><path d="m241 377.61h30v42.77h-30z" fill="#454d7d" data-original="#454d7d" style="" class=""/><path d="m241 91.62h30v42.77h-30z" fill="#454d7d" data-original="#454d7d" style="" class=""/></g><path d="m256 91.62h15v42.77h-15z" fill="#263658" data-original="#263658" style=""/><path d="m256 377.61h15v42.77h-15z" fill="#263658" data-original="#263658" style=""/><path d="m342.38 241v30h-101.38v-101.38h30v71.38z" fill="#67a6ff" data-original="#67a6ff" style="" class=""/><path d="m342.38 241v30h-86.38v-101.38h15v71.38z" fill="#7881ef" data-original="#7881ef" style=""/><path d="m256 76.62c-98.91 0-179.38 80.47-179.38 179.38s80.47 179.38 179.38 179.38 179.38-80.47 179.38-179.38-80.47-179.38-179.38-179.38zm0 328.76c-82.37 0-149.38-67.01-149.38-149.38s67.01-149.38 149.38-149.38 149.38 67.01 149.38 149.38-67.01 149.38-149.38 149.38z" fill="#546093" data-original="#546093" style="" class=""/><path d="m435.38 256c0 98.91-80.47 179.38-179.38 179.38v-30c82.37 0 149.38-67.01 149.38-149.38s-67.01-149.38-149.38-149.38v-30c98.91 0 179.38 80.47 179.38 179.38z" fill="#454d7d" data-original="#454d7d" style="" class=""/></g></g></svg>
